<svg xmlns="http://www.w3.org/2000/svg" xmlns:xlink="http://www.w3.org/1999/xlink" viewBox="0 0 1008.69 1000.5"><defs><style>.cls-1,.cls-10,.cls-11,.cls-14,.cls-16,.cls-18,.cls-5,.cls-7{fill:none;}.cls-2{fill:#fff;}.cls-3{clip-path:url(#clip-path);}.cls-4{fill:#ccc;}.cls-14,.cls-5{stroke:#4d4d4d;}.cls-10,.cls-11,.cls-14,.cls-16,.cls-18,.cls-5,.cls-7{stroke-miterlimit:10;}.cls-16,.cls-18,.cls-5,.cls-7{stroke-width:3px;}.cls-12,.cls-6,.cls-8{writing-mode:tb;text-orientation:upright;glyph-orientation-vertical:0deg;}.cls-6{font-size:25.92px;}.cls-12,.cls-13,.cls-15,.cls-17,.cls-6,.cls-8{font-family:Meiryo;}.cls-7{stroke:#009245;}.cls-8{font-size:19.22px;}.cls-17,.cls-9{fill:#f43700;}.cls-10{stroke:#231815;stroke-width:10px;}.cls-11{stroke:#fff;stroke-width:7px;stroke-dasharray:15 15 0 0 0 0;}.cls-12,.cls-13{font-size:20px;}.cls-14{stroke-width:2px;}.cls-15,.cls-17{font-size:16px;}.cls-16{stroke:#f43700;}.cls-18{stroke:#333;}</style><clipPath id="clip-path" transform="translate(102 141)"><rect class="cls-1" x="1.5" y="1.5" width="727" height="727" rx="56.91"/></clipPath></defs><g id="レイヤー_2" data-name="レイヤー 2"><g id="レイヤー_1-2" data-name="レイヤー 1"><rect class="cls-2" x="103.5" y="142.5" width="727" height="727" rx="56.91"/><g class="cls-3"><rect class="cls-4" x="713.75" width="49" height="1000" rx="24.5"/><rect class="cls-4" x="509" y="0.5" width="30" height="1000" rx="10"/><rect class="cls-4" x="286" y="0.5" width="30" height="1000" rx="10"/><rect class="cls-4" x="382" y="-404.5" width="49" height="1000" rx="24.5" transform="translate(604 -170) rotate(90)"/><rect class="cls-4" x="39.5" y="435.5" width="17" height="300" rx="8.5" transform="translate(735.5 678.5) rotate(90)"/><rect class="cls-4" x="169.5" y="131.5" width="17" height="500" rx="8.5" transform="translate(661.5 344.5) rotate(90)"/><rect class="cls-4" x="382.19" y="153.27" width="49" height="1000" rx="24.5" transform="translate(1161.96 387.59) rotate(90)"/><rect class="cls-5" x="149" y="545.67" width="115" height="161.16" rx="27.85"/><text class="cls-6" transform="translate(226.25 564.03)">広島市営<tspan x="-33.2" y="0">基町駐車場</tspan></text><rect class="cls-7" x="417.05" y="381.3" width="85.27" height="119.5" rx="27.85"/><text class="cls-8" transform="translate(459.69 394.91)">京口門公園</text><path class="cls-9" d="M507.26,192.26c0,16.15-12.91,56.74-29.06,56.74s-29.46-40.59-29.46-56.74a29.26,29.26,0,0,1,58.52,0Z" transform="translate(102 141)"/><circle class="cls-2" cx="580" cy="333.26" r="13.74"/><line class="cls-10" x1="8.69" y1="794.27" x2="1008.69" y2="794.27"/><line class="cls-11" x1="8.69" y1="794.27" x2="1008.69" y2="794.27"/><line class="cls-10" x1="738.25" y1="59" x2="738.25" y2="959"/><line class="cls-11" x1="738.25" y1="59" x2="738.25" y2="959"/><text class="cls-12" transform="translate(777.36 471.54)">広電白島線</text><text class="cls-13" transform="translate(366.94 838)">広電本線</text><text class="cls-13" transform="translate(366.94 202)">城南通り</text><rect class="cls-14" x="388.46" y="535.87" width="115" height="57.13" rx="14.67"/><text class="cls-15" transform="translate(421.96 559.49)">セブン<tspan x="-8" y="24">イレブン</tspan></text><rect class="cls-16" x="543.67" y="393.65" width="115" height="57.13" rx="14.67"/><text class="cls-17" transform="translate(581.75 417.26)">Baby<tspan x="-22.41" y="20">Healthcare</tspan></text><rect class="cls-14" x="347.29" y="706.31" width="115" height="57.13" rx="14.67"/><text class="cls-15" transform="translate(364.79 729.92)">東急ハンズ<tspan x="16" y="24">広島店</tspan></text></g><rect class="cls-18" x="103.5" y="142.5" width="727" height="727" rx="56.91"/></g></g></svg>